<?xml version="1.0" standalone="no"?><!DOCTYPE svg PUBLIC "-//W3C//DTD SVG 1.1//EN" "http://www.w3.org/Graphics/SVG/1.1/DTD/svg11.dtd"><svg t="1760417559785" class="icon" viewBox="0 0 1024 1024" version="1.1" xmlns="http://www.w3.org/2000/svg" p-id="6892" xmlns:xlink="http://www.w3.org/1999/xlink" width="32" height="32"><path d="M278.4 112C246.148 112 220 138.864 220 172v30c0 16.568 13.072 30 29.2 30h525.6c16.128 0 29.2-13.432 29.2-30V172c0-33.136-26.148-60-58.4-60H278.4zM218.668 264C186.268 264 160 290.864 160 324v30c0 7.96 3.092 15.588 8.592 21.212A29.008 29.008 0 0 0 189.332 384h645.336c7.78 0 15.24-3.16 20.74-8.788A30.352 30.352 0 0 0 864 354V324c0-33.136-26.268-60-58.668-60H218.668z" fill="#35CBB9" p-id="6893"></path><path d="M363.428 432c16.4 0 29.328 13.648 33.368 29.7C410.264 514.832 457.68 552 512 552c54.324 0 101.74-37.168 115.204-90.3 4.04-16.048 16.94-29.7 33.372-29.7h208c32.82 0 59.428 26.864 59.428 60v300c0 31.828-12.52 62.348-34.812 84.852A118.288 118.288 0 0 1 809.144 912H214.856c-31.52 0-61.752-12.64-84.04-35.148C108.52 854.348 96 823.828 96 792v-300c0-33.136 26.608-60 59.428-60h208zM632 677H392c-24.852 0-45 20.148-45 45s20.148 45 45 45h240c24.852 0 45-20.148 45-45s-20.148-45-45-45z" fill="#2E75E6" p-id="6894"></path></svg>