<?xml version="1.0" standalone="no"?><!DOCTYPE svg PUBLIC "-//W3C//DTD SVG 1.1//EN" "http://www.w3.org/Graphics/SVG/1.1/DTD/svg11.dtd"><svg t="1760276183421" class="icon" viewBox="0 0 1024 1024" version="1.1" xmlns="http://www.w3.org/2000/svg" p-id="7823" xmlns:xlink="http://www.w3.org/1999/xlink" width="32" height="32"><path d="M1016.038016 774.234488v207.919594H638.878752v-194.199621H78.439847v-124.779756h826.518386c61.33988 0.002 111.079783 49.719903 111.079783 111.059783z" fill="#75DC5E" p-id="7824"></path><path d="M904.958233 663.168705h-47.547908c61.34388 0 111.071783 49.727903 111.071783 111.071783v207.903594h47.547908V774.240488c0-61.34388-49.727903-111.071783-111.071783-111.071783zM544.462937 787.960461v-13.719973c0-61.34188-49.725903-111.067783-111.065783-111.071783h-229.619552c-61.33988 0.002-111.065783 49.729903-111.065783 111.071783v13.719973h451.751118z" fill="#2AAD52" p-id="7825"></path><path d="M857.076326 641.134748h-133.843739l-34.965931 43.593915a42.759916 42.759916 0 0 0-8.931983 33.071935l14.049973 93.999816c1.007998 6.743987 8.607983 10.23598 14.379972 6.605988l82.389839-51.787899 82.389839 51.787899c5.773989 3.627993 13.371974 0.138 14.379972-6.605988l14.049972-93.999816a42.759916 42.759916 0 0 0-8.931982-33.071935l-34.965932-43.593915z" fill="#EBEAE6" p-id="7826"></path><path d="M723.232587 551.566923v129.223747a15.839969 15.839969 0 0 0 3.593993 10.047981l51.075901 62.269878c6.339988 7.727985 18.163965 7.727985 24.501952 0l51.0759-62.269878a15.843969 15.843969 0 0 0 3.593993-10.047981v-129.223747h-133.841739z" fill="#F2A077" p-id="7827"></path><path d="M982.344081 348.853319h-13.861973v-90.411824c0-87.469829-70.907862-158.375691-158.37569-158.37569h-39.903922c-87.469829 0-158.375691 70.907862-158.375691 158.37569v90.411824h-13.861973c-23.003955 0-41.653919 18.647964-41.653919 41.653918v19.699962c0 23.003955 18.647964 41.653919 41.653919 41.653918h14.119973c4.859991 94.153816 82.725838 168.99367 178.071652 168.99367 47.671907 0 90.967822-18.701963 122.96376-49.185904 31.995938-30.48394 52.661897-72.747858 55.107892-119.807766h14.119972c23.003955 0 41.651919-18.647964 41.651919-41.651918v-19.699962c-0.002-23.005955-18.649964-41.655919-41.655919-41.655918z" fill="#FFCCAA" p-id="7828"></path><path d="M982.344081 348.853319h-13.861973v-90.411824c0-87.469829-70.907862-158.377691-158.37569-158.37769h-39.903922c-2.617995 0-5.21799 0.072-7.805985 0.197999 83.841836 4.069992 150.571706 73.327857 150.571706 158.179691v90.411824l-0.258 103.005798c-2.445995 47.059908-23.111955 89.325826-55.107892 119.807766-25.65595 24.443952-58.585886 41.281919-95.203814 47.007909a179.34165 179.34165 0 0 0 27.755946 2.177995c47.671907 0 90.965822-18.701963 122.96376-49.185904 31.995938-30.48394 52.661897-72.747858 55.107892-119.807766h14.119972c23.003955 0 41.651919-18.647964 41.651919-41.651918v-19.699962c0-23.003955-18.647964-41.653919-41.653919-41.653918z" fill="#F2A077" p-id="7829"></path><path d="M790.154457 517.09899c-23.269955 0-45.175912-9.065982-61.67788-25.52795-8.339984-8.341984-14.779971-18.055965-19.153962-28.889944a14.999971 14.999971 0 0 1 27.819945-11.227978 56.48589 56.48589 0 0 0 12.533976 18.891963c10.827979 10.799979 25.207951 16.753967 40.477921 16.753968 23.419954 0 44.231914-14.001973 53.021896-35.669931a15.001971 15.001971 0 0 1 27.801946 11.277978c-13.405974 33.041935-45.129912 54.391894-80.823842 54.391894zM700.884631 375.403267a14.999971 14.999971 0 0 1-14.999971-14.999971v-8.615983a14.999971 14.999971 0 0 1 29.999942 0v8.615983a14.999971 14.999971 0 0 1-14.999971 14.999971zM879.424282 375.403267a14.999971 14.999971 0 0 1-14.99997-14.999971v-8.615983a14.999971 14.999971 0 0 1 29.999941 0v8.615983a14.999971 14.999971 0 0 1-14.999971 14.999971z" fill="#475D6D" p-id="7830"></path><path d="M555.920914 41.843918h256.831499c86.007832 0 155.729696 69.721864 155.729695 155.729696v60.867881H658.846713c-56.843889 0-102.925799-46.08191-102.925799-102.925799V41.843918z" fill="#F9DC6A" p-id="7831"></path><path d="M812.752413 41.843918h-56.963889c86.007832 0 155.729696 69.721864 155.729696 155.729696v60.867881h56.963888V197.575614c0-86.007832-69.721864-155.731696-155.729695-155.731696z" fill="#E5AC51" p-id="7832"></path><path d="M483.359056 774.234488v207.919594H31.599938v-207.919594c0-61.33988 49.719903-111.059783 111.079783-111.059783h229.599552c61.33988 0.002 111.079783 49.719903 111.079783 111.059783z" fill="#2BB4F3" p-id="7833"></path><path d="M372.279273 663.168705h-47.547907c61.34388 0 111.071783 49.727903 111.071783 111.071783v207.903594h47.547907V774.240488c0-61.34388-49.729903-111.071783-111.071783-111.071783z" fill="#1687C4" p-id="7834"></path><path d="M190.553628 551.566923v134.891736c0 36.959928 29.961941 66.921869 66.921869 66.92187 36.959928 0 66.921869-29.961941 66.921869-66.92187v-134.891736H190.553628z" fill="#F2A077" p-id="7835"></path><path d="M449.665122 348.853319h-13.861973v-98.259808c0-71.151861-57.679887-128.831748-128.831749-128.831749h-98.993806c-71.151861 0-128.831748 57.679887-128.831749 128.831749v98.259808h-13.861973c-23.003955 0-41.653919 18.647964-41.653918 41.653918v19.699962c0 23.003955 18.647964 41.653919 41.653918 41.653918h14.119973c4.859991 94.153816 82.725838 168.99367 178.071652 168.99367 94.953815 0 173.153662-74.413855 178.071652-168.99367h14.119973c23.003955 0 41.651919-18.647964 41.651918-41.651918v-19.699962c-0.002-23.005955-18.649964-41.655919-41.653918-41.655918z" fill="#FFCCAA" p-id="7836"></path><path d="M449.665122 348.853319h-13.861973v-98.259808c0-71.151861-57.679887-128.831748-128.831749-128.831749h-53.069896c71.151861 0 128.831748 57.679887 128.831748 128.831749v98.259808l-0.257999 103.005798c-4.449991 85.607833-68.943865 154.687698-151.551704 167.023674 8.663983 1.293997 17.527966 1.969996 26.551948 1.969996 94.953815 0 173.153662-74.415855 178.071652-168.99367h14.119973c23.003955 0 41.651919-18.647964 41.651918-41.651918v-19.699962c-0.002-23.003955-18.649964-41.653919-41.653918-41.653918z" fill="#F2A077" p-id="7837"></path><path d="M257.473497 517.09899c-23.271955 0-45.175912-9.065982-61.677879-25.52995-8.341984-8.341984-14.783971-18.057965-19.153963-28.889944a15.001971 15.001971 0 0 1 27.819946-11.227978 56.46789 56.46789 0 0 0 12.533975 18.889963c10.825979 10.799979 25.205951 16.753967 40.477921 16.753968 23.419954 0 44.231914-13.999973 53.021897-35.669931a14.999971 14.999971 0 0 1 27.799945 11.275978c-13.401974 33.047935-45.125912 54.397894-80.821842 54.397894zM168.203671 375.403267a14.999971 14.999971 0 0 1-14.99997-14.999971v-8.615983a14.999971 14.999971 0 0 1 29.999941 0v8.615983a14.999971 14.999971 0 0 1-14.999971 14.999971zM346.745323 375.403267a14.999971 14.999971 0 0 1-14.999971-14.999971v-8.615983a14.999971 14.999971 0 0 1 29.999941 0v8.615983a14.999971 14.999971 0 0 1-14.99997 14.999971zM79.145845 263.637485h51.2719a36.759928 36.759928 0 0 0 33.567935-21.775957l13.301974-29.797942c3.617993-8.103984 13.875973-10.667979 20.881959-5.21999l63.061877 49.047904a36.763928 36.763928 0 0 0 22.569956 7.743985h152.001703V152.903701c0-55.343892-44.865912-100.209804-100.209804-100.209804h-121.829763c-18.213964 0-32.981936 14.765971-32.981935 32.981936v17.645965H127.649751c-26.787948 0-48.503905 21.715958-48.503906 48.503905v111.811782z" fill="#475D6D" p-id="7838"></path><path d="M335.593345 52.693897h-57.765888c55.343892 0 100.209804 44.865912 100.209805 100.209804v110.733784h57.765887V152.903701c0-55.345892-44.865912-100.209804-100.209804-100.209804z" fill="#2C3F4F" p-id="7839"></path><path d="M76.543851 805.996426H38.717924C17.333966 805.996426 0 788.66246 0 767.280501v-84.505835c0-21.383958 17.333966-38.717924 38.717924-38.717924h37.825927c15.709969 0 28.445944 12.735975 28.445944 28.445945v105.051794c0 15.707969-12.735975 28.441944-28.445944 28.441945z" fill="#FFCCAA" p-id="7840"></path><path d="M423.739172 862.534315v119.619767h-29.999941v-119.619767c0-8.279984 6.719987-14.999971 14.999971-14.99997s14.999971 6.719987 14.99997 14.99997zM121.199763 862.534315v119.619767h-29.999941v-119.619767c0-8.279984 6.719987-14.999971 14.999971-14.99997s14.999971 6.719987 14.99997 14.99997z" fill="#1687C4" p-id="7841"></path><path d="M956.418132 862.534315v119.619767h-29.999941v-119.619767c0-8.279984 6.719987-14.999971 14.99997-14.99997 8.299984 0 14.999971 6.719987 14.999971 14.99997z" fill="#2AAD52" p-id="7842"></path></svg>