<?xml version="1.0" standalone="no"?><!DOCTYPE svg PUBLIC "-//W3C//DTD SVG 1.1//EN" "http://www.w3.org/Graphics/SVG/1.1/DTD/svg11.dtd"><svg t="1760450930701" class="icon" viewBox="0 0 1024 1024" version="1.1" xmlns="http://www.w3.org/2000/svg" p-id="26658" xmlns:xlink="http://www.w3.org/1999/xlink" width="32" height="32"><path d="M176 232h692a28 28 0 0 0 28-28V76a28 28 0 0 0-28-28H176a28 28 0 0 0-28 28v128a28 28 0 0 0 28 28z m16-92a48 48 0 0 1 48-48h544a48 48 0 0 1 0 96H240a48 48 0 0 1-48-48z" fill="#FFDD00" p-id="26659"></path><path d="M616 884.48v-165.96l-2.36 0.4A59.72 59.72 0 0 0 564 777.88v46.6a8 8 0 0 1-8 8h-104v52c0 50.72 21.28 92 72 92a92 92 0 0 0 92-92z" fill="#EFFAFE" p-id="26660"></path><path d="M796 444H228l284 176.6L796 444z" fill="#40BDFF" p-id="26661"></path><path d="M228 806.24l216.24-208.96L228 450.4v355.84zM816 450.4l-236 146.84 2 1.76c138.52 122.32 157.56 139.24 234.12 207.08z m-7.12 346.68z" fill="#2197F7" p-id="26662"></path><path d="M796 462.84v325.52l20 17.72V450.4z m12.88 334.24z" fill="#228ED6" p-id="26663"></path><path d="M803.08 816c-62.72-55.68-162.28-143.6-237.4-209.96l-49.48 30.76a8 8 0 0 1-8.44 0l-49.36-30.68L221.12 816H548v-38.12a76 76 0 0 1 76-76 8 8 0 0 1 8 8V816z" fill="#40BDFF" p-id="26664"></path><path d="M228 806.24l216.24-208.96L228 450.4v355.84z" fill="#2197F7" p-id="26665"></path><path d="M228 450.4v13.6l196.24 133.28L228 786.92v19.32l216.24-208.96L228 450.4z" fill="#228ED6" p-id="26666"></path><path d="M868 48h-20a28 28 0 0 1 28 28v128a28 28 0 0 1-28 28h20a28 28 0 0 0 28-28V76a28 28 0 0 0-28-28z" fill="#EFC803" p-id="26667"></path><path d="M613.64 718.92a60 60 0 0 0-13.64 4v161.4A92 92 0 0 1 516 976c2.56 0.24 5.2 0.36 8 0.36a92 92 0 0 0 92-92v-165.84z" fill="#E4EBED" p-id="26668"></path><path d="M776 444l-274 170.36 10 6.24L796 444h-20zM565.68 606.04l-11.72 7.28c74.04 65.44 168.68 149 229.12 202.68h20c-62.72-55.68-162.24-143.6-237.4-209.96z" fill="#2197F7" p-id="26669"></path><path d="M156 250h712A46.04 46.04 0 0 0 914 204V76A46.04 46.04 0 0 0 868 30H156A46.04 46.04 0 0 0 110 76v128A46.04 46.04 0 0 0 156 250zM130 76a26.04 26.04 0 0 1 26-26h712a26.04 26.04 0 0 1 26 26v128a26.04 26.04 0 0 1-26 26H156a26.04 26.04 0 0 1-26-26z" fill="#263238" p-id="26670"></path><path d="M240 190h544a50 50 0 0 0 0-100H240a50 50 0 0 0 0 100z m0-80h544a30 30 0 0 1 0 60H240a30 30 0 0 1 0-60zM524 994.48a110.12 110.12 0 0 0 110-110V834H824a10.08 10.08 0 0 0 10-10v-388a10.08 10.08 0 0 0-10-10H200a10.04 10.04 0 0 0-10 10v388a10.08 10.08 0 0 0 10 10h214v50.48a110.12 110.12 0 0 0 110 110z m90-110a90 90 0 0 1-180 0v-50H556a10 10 0 0 0 10-10v-46.6a57.92 57.92 0 0 1 48-56.96z m200-82.84c-48-42.64-182.72-161.68-230.8-204l230.8-143.52z m-25-355.64L512 618.24 235 446z m-579 8l230.88 143.56-230.88 204.24z m16.4 360l232.2-205.4 48 29.92a10 10 0 0 0 10.56 0l48.2-29.96c52 45.88 180.96 160 232.36 205.48h-164v-104A10 10 0 0 0 624 700a77.92 77.92 0 0 0-77.84 77.84v36zM512 406a10 10 0 0 0 10-10V304l27.6 27.6a10 10 0 1 0 14.16-14.16l-44.68-44.52a10 10 0 0 0-14.16 0L460.24 317.6a10 10 0 0 0 14.16 14.16l27.6-27.6V396a10 10 0 0 0 10 10z" fill="#263238" p-id="26671"></path><path d="M164 598.4h-16v-16a4 4 0 0 0-8 0v16h-16a4 4 0 0 0 0 8h16v16a4 4 0 0 0 8 0v-16h16a4 4 0 0 0 0-8zM890.88 681.32h-16v-16a4 4 0 0 0-8 0v16h-16a4 4 0 0 0 0 8h16v16a4 4 0 0 0 8 0v-16h16a4 4 0 0 0 0-8z" fill="#FFDD00" p-id="26672"></path><path d="M86.68 86h-16v-16a4 4 0 0 0-8 0v16h-16a4 4 0 1 0 0 8h16v16a4 4 0 1 0 8 0v-16h16a4 4 0 0 0 0-8zM324.88 386a24 24 0 1 1 24-24 24 24 0 0 1-24 24z m0-40a16 16 0 1 0 16 16 16 16 0 0 0-16-16z" fill="#40BDFF" p-id="26673"></path><path d="M128 968a24 24 0 1 1 24-24 24 24 0 0 1-24 24z m0-40a16 16 0 1 0 16 16 16 16 0 0 0-16-16zM952 233.64a24 24 0 1 1 24-24 24 24 0 0 1-24 24z m0-40a16 16 0 1 0 16 16 16 16 0 0 0-16-16z" fill="#FFDD00" p-id="26674"></path><path d="M799.08 923.28h-10.36L796 916a4 4 0 0 0-5.64-5.64l-7.32 7.32v-10.36a4 4 0 0 0-8 0v10.36l-7.32-7.32a4 4 0 0 0-5.64 5.64l7.32 7.32h-10.36a4 4 0 0 0 0 8h10.36l-7.32 7.32a4 4 0 0 0 5.64 5.64l7.32-7.32v10.36a4 4 0 0 0 8 0v-10.36l7.32 7.32a4 4 0 0 0 5.64-5.64l-7.32-7.32h10.36a4 4 0 0 0 0-8z" fill="#40BDFF" p-id="26675"></path></svg>