<?xml version="1.0" standalone="no"?><!DOCTYPE svg PUBLIC "-//W3C//DTD SVG 1.1//EN" "http://www.w3.org/Graphics/SVG/1.1/DTD/svg11.dtd"><svg t="1760417656737" class="icon" viewBox="0 0 1024 1024" version="1.1" xmlns="http://www.w3.org/2000/svg" p-id="8956" xmlns:xlink="http://www.w3.org/1999/xlink" width="32" height="32"><path d="M16 400h128v-64H16v64z m864-64v64h128v-64h-128z" fill="#E09BC4" p-id="8957"></path><path d="M656 240V16H144v992h736V240z" fill="#EDF2F9" p-id="8958"></path><path d="M656 16v224h224z" fill="#D0D6DF" p-id="8959"></path><path d="M895.904 239.824a15.616 15.616 0 0 0-4.464-10.496L666.656 4.56a15.376 15.376 0 0 0-10.336-4.432L656 0H160a32 32 0 0 0-32 32v960a32 32 0 0 0 32 32h704a32 32 0 0 0 32-32V240l-0.096-0.176zM672 54.096L841.904 224H672V54.096zM864 992H160V32h480v224h224v736zM272 576h480v-32H272v32z m-16-208a16 16 0 0 0 16 16h480a16 16 0 1 0 0-32H272a16 16 0 0 0-16 16z m496 80H272a16 16 0 1 0 0 32h480a16 16 0 1 0 0-32z" fill="#2B3139" p-id="8960"></path><path d="M16 1008h992V336z" fill="#E09BC4" p-id="8961"></path><path d="M16 336v672h992z" fill="#EEBFD9" p-id="8962"></path><path d="M880 320v32h76.272L512 650.32 67.744 352H144v-32H0v672a32 32 0 0 0 32 32h960a32 32 0 0 0 32-32V320h-144zM32 992V366.432L963.584 992H32z m960-19.36L540.624 669.552A5685958.88 5685958.88 0 0 0 992 366.432V972.64z" fill="#2B3139" p-id="8963"></path></svg>