<?xml version="1.0" standalone="no"?><!DOCTYPE svg PUBLIC "-//W3C//DTD SVG 1.1//EN" "http://www.w3.org/Graphics/SVG/1.1/DTD/svg11.dtd"><svg t="1760421118367" class="icon" viewBox="0 0 1024 1024" version="1.1" xmlns="http://www.w3.org/2000/svg" p-id="20360" xmlns:xlink="http://www.w3.org/1999/xlink" width="32" height="32"><path d="M799.824212 823.991862h23.959308s72.086267-1.458393 72.086266-96.045575V296.053713H799.61587l0.208342 527.938149z" fill="#616161" p-id="20361"></path><path d="M799.824212 266.469176V200.008138H127.921872v527.938149s0 96.045575 96.045575 96.045575h575.856765V266.469176z" fill="#757575" p-id="20362"></path><path d="M223.967447 775.864903c-47.918616 0-47.918616-47.918616-47.918617-47.918616V248.135097H752.113937v480.019532c0 22.084232 6.87528 37.293184 16.250661 47.918616H223.967447v-0.208342z" fill="#EEEEEE" p-id="20363"></path><path d="M484.811394 343.97233h219.175585v47.918616H484.811394zM487.936521 631.900712h168.131841v48.126958h-168.131841zM487.936521 536.063479h216.050458v47.918617H487.936521zM487.936521 440.017904h216.050458v48.126959H487.936521z" fill="#757575" p-id="20364"></path><path d="M223.967447 346.680773h216.050457v283.136521H223.967447z" fill="#558B2F" p-id="20365"></path></svg>