<?xml version="1.0" standalone="no"?><!DOCTYPE svg PUBLIC "-//W3C//DTD SVG 1.1//EN" "http://www.w3.org/Graphics/SVG/1.1/DTD/svg11.dtd"><svg t="1760505665361" class="icon" viewBox="0 0 1024 1024" version="1.1" xmlns="http://www.w3.org/2000/svg" p-id="4547" xmlns:xlink="http://www.w3.org/1999/xlink" width="32" height="32"><path d="M364.93617 559.931915v-27.234043H163.404255v163.404256h201.531915V625.293617a16.340426 16.340426 0 0 1 16.340426-16.340426v-32.680851a16.340426 16.340426 0 0 1-16.340426-16.340425z" fill="#FF6E1D" p-id="4548"></path><path d="M710.26383 242.92766h127.224374L710.26383 115.703285z" fill="#FFCC75" p-id="4549"></path><path d="M942.297872 898.723404h-65.361702a16.338247 16.338247 0 0 1-16.340425-16.340425V275.608511h-166.672341a16.338247 16.338247 0 0 1-16.340425-16.340426V92.595745H32.680851V882.382979c0 27.029243 21.989855 49.021277 49.021277 49.021276h860.595744c27.029243 0 49.021277-21.992034 49.021277-49.021276h-32.680851c0 9.026451-7.313974 16.340426-16.340426 16.340425zM322.350843 307.274077l57.187131-43.574468a16.346962 16.346962 0 0 1 19.806775 0l47.287013 36.029548 47.293549-36.029548a16.342604 16.342604 0 0 1 19.804595 0l57.195847 43.574468a16.340426 16.340426 0 0 1-9.91537 29.338689 16.253277 16.253277 0 0 1-9.889226-3.342162l-47.293548-36.029549-47.295728 36.029549a16.342604 16.342604 0 0 1-19.804596 0l-47.284834-36.029549-47.280477 36.029549a16.340426 16.340426 0 1 1-19.811131-25.996527zM381.276596 826.825532H147.06383c-9.024272 0-16.340426-7.313974-16.340426-16.340426s7.316153-16.340426 16.340426-16.340425H381.276596c9.024272 0 16.340426 7.313974 16.340425 16.340425s-7.316153 16.340426-16.340425 16.340426z m16.340425-266.893617a16.340426 16.340426 0 0 1-16.340425 16.340425v32.680851a16.340426 16.340426 0 0 1 16.340425 16.340426v87.148936a16.340426 16.340426 0 0 1-16.340425 16.340426H147.06383A16.340426 16.340426 0 0 1 130.723404 712.442553v-196.085106a16.340426 16.340426 0 0 1 16.340426-16.340426H381.276596a16.340426 16.340426 0 0 1 16.340425 16.340426v43.574468z m348.595745 266.893617H512c-9.024272 0-16.340426-7.313974-16.340426-16.340426s7.316153-16.340426 16.340426-16.340425h234.212766c9.026451 0 16.340426 7.313974 16.340425 16.340425s-7.313974 16.340426-16.340425 16.340426z m0-98.042553H512c-9.024272 0-16.340426-7.313974-16.340426-16.340426s7.316153-16.340426 16.340426-16.340425h234.212766c9.026451 0 16.340426 7.313974 16.340425 16.340425s-7.313974 16.340426-16.340425 16.340426z m0-98.042553H512c-9.024272 0-16.340426-7.313974-16.340426-16.340426s7.316153-16.340426 16.340426-16.340426h234.212766c9.026451 0 16.340426 7.313974 16.340425 16.340426s-7.313974 16.340426-16.340425 16.340426z m0-98.042554H512c-9.024272 0-16.340426-7.313974-16.340426-16.340425s7.316153-16.340426 16.340426-16.340426h234.212766c9.026451 0 16.340426 7.313974 16.340425 16.340426s-7.313974 16.340426-16.340425 16.340425z m0-98.042553h-599.148936c-9.024272 0-16.340426-7.313974-16.340426-16.340425s7.316153-16.340426 16.340426-16.340426h599.148936c9.026451 0 16.340426 7.313974 16.340425 16.340426s-7.313974 16.340426-16.340425 16.340425z" fill="#FFFFFF" p-id="4550"></path><path d="M888.731779 247.97794c0.285413 0.298485 0.568647 0.59697 0.830093 0.917243 0.093685 0.113294 0.174298 0.237481 0.263626 0.352953 0.237481 0.305021 0.474962 0.612221 0.690655 0.934673 0.065362 0.098043 0.11983 0.202621 0.183013 0.300663 0.224409 0.350774 0.44446 0.705906 0.642723 1.074111 0.03486 0.065362 0.063183 0.13726 0.098043 0.202621 0.211336 0.407421 0.411779 0.8192 0.588255 1.24623 0.01743 0.041396 0.028323 0.082791 0.043575 0.122009 0.183013 0.450996 0.350774 0.908528 0.49457 1.379131 0.015251 0.047932 0.023966 0.098043 0.037038 0.145975 0.135081 0.457532 0.257089 0.9216 0.350775 1.39874 0.026145 0.130723 0.037038 0.265804 0.061004 0.398707 0.06754 0.39217 0.13726 0.78434 0.176477 1.185225 0.054468 0.540323 0.082791 1.085004 0.082791 1.631864v606.774468h49.021277c9.026451 0 16.340426 7.313974 16.340425 16.340426h32.680851V179.744681h-117.807932a16.338247 16.338247 0 0 1-16.340425-16.340426h-52.986553l84.30788 84.307881c0.087149 0.08497 0.159047 0.178655 0.241839 0.265804z" fill="#F2EBD9" p-id="4551"></path><path d="M342.159796 333.270604l47.280476-36.029549 47.284834 36.029549a16.342604 16.342604 0 0 0 19.804596 0l47.295728-36.029549 47.293549 36.029549a16.253277 16.253277 0 0 0 9.889225 3.342162 16.340426 16.340426 0 0 0 9.91537-29.338689l-57.195846-43.574468a16.342604 16.342604 0 0 0-19.804596 0l-47.293549 36.029548-47.287013-36.029548a16.346962 16.346962 0 0 0-19.806774 0l-57.187132 43.574468a16.342604 16.342604 0 0 0 19.811132 25.996527z" fill="#082947" p-id="4552"></path><path d="M1007.659574 147.06383h-134.148357c-9.026451 0-16.340426 7.313974-16.340426 16.340425s7.313974 16.340426 16.340426 16.340426H991.319149V882.382979c0 27.029243-21.992034 49.021277-49.021277 49.021276h-860.595744C54.670706 931.404255 32.680851 909.412221 32.680851 882.382979V92.595745h644.902128V259.268085c0 9.026451 7.313974 16.340426 16.340425 16.340426H860.595745V882.382979c0 9.026451 7.313974 16.340426 16.340425 16.340425h65.361702c9.026451 0 16.340426-7.313974 16.340426-16.340425s-7.313974-16.340426-16.340426-16.340426H893.276596V259.268085c0-0.54686-0.028323-1.09154-0.082792-1.631864-0.039217-0.400885-0.108936-0.793055-0.176476-1.185225-0.023966-0.132902-0.03486-0.267983-0.061005-0.398707a15.810996 15.810996 0 0 0-0.350774-1.39874c-0.013072-0.047932-0.021787-0.098043-0.037038-0.145975a16.445004 16.445004 0 0 0-0.494571-1.379131l-0.043574-0.122009a16.253277 16.253277 0 0 0-0.588255-1.24623c-0.03486-0.065362-0.061004-0.13726-0.098043-0.202621a16.645447 16.645447 0 0 0-0.642723-1.074111c-0.063183-0.098043-0.117651-0.202621-0.183013-0.300663a16.153055 16.153055 0 0 0-0.690655-0.934673c-0.091506-0.115472-0.16994-0.23966-0.263626-0.352953a16.499472 16.499472 0 0 0-0.830094-0.917243c-0.082791-0.087149-0.154689-0.180834-0.239659-0.265804l-183.012766-183.012766c-0.08497-0.08497-0.178655-0.156868-0.265804-0.239659a16.499472 16.499472 0 0 0-0.917243-0.830094c-0.113294-0.093685-0.237481-0.174298-0.352953-0.265804a16.889464 16.889464 0 0 0-0.932494-0.690656c-0.098043-0.065362-0.202621-0.11983-0.302842-0.183012a15.710774 15.710774 0 0 0-1.074111-0.642724c-0.065362-0.037038-0.135081-0.063183-0.202621-0.098042a15.876357 15.876357 0 0 0-1.24623-0.588256c-0.039217-0.01743-0.080613-0.028323-0.122008-0.045753a16.445004 16.445004 0 0 0-1.379132-0.49457c-0.047932-0.013072-0.098043-0.021787-0.145975-0.037038a15.810996 15.810996 0 0 0-1.39874-0.350775c-0.130723-0.026145-0.265804-0.039217-0.398707-0.061004-0.39217-0.06754-0.78434-0.13726-1.185225-0.178655a16.238026 16.238026 0 0 0-1.631864-0.082792H16.340426A16.346962 16.346962 0 0 0 0 76.255319v806.12766c0 45.051643 36.650485 81.702128 81.702128 81.702127h860.595744c45.051643 0 81.702128-36.650485 81.702128-81.702127V163.404255c0-9.026451-7.313974-16.340426-16.340426-16.340425z m-297.395744 95.86383V115.703285l127.224374 127.224375H710.26383z" fill="#082947" p-id="4553"></path><path d="M381.276596 794.144681H147.06383c-9.024272 0-16.340426 7.313974-16.340426 16.340425s7.316153 16.340426 16.340426 16.340426H381.276596c9.024272 0 16.340426-7.313974 16.340425-16.340426s-7.316153-16.340426-16.340425-16.340425zM746.212766 794.144681H512c-9.024272 0-16.340426 7.313974-16.340426 16.340425s7.316153 16.340426 16.340426 16.340426h234.212766c9.026451 0 16.340426-7.313974 16.340425-16.340426s-7.313974-16.340426-16.340425-16.340425zM746.212766 696.102128H512c-9.024272 0-16.340426 7.313974-16.340426 16.340425s7.316153 16.340426 16.340426 16.340426h234.212766c9.026451 0 16.340426-7.313974 16.340425-16.340426s-7.313974-16.340426-16.340425-16.340425zM746.212766 598.059574H512c-9.024272 0-16.340426 7.313974-16.340426 16.340426s7.316153 16.340426 16.340426 16.340426h234.212766c9.026451 0 16.340426-7.313974 16.340425-16.340426s-7.313974-16.340426-16.340425-16.340426zM381.276596 500.017021H147.06383A16.340426 16.340426 0 0 0 130.723404 516.357447v196.085106a16.340426 16.340426 0 0 0 16.340426 16.340426H381.276596a16.340426 16.340426 0 0 0 16.340425-16.340426v-87.148936c0-9.026451-7.316153-16.340426-16.340425-16.340426s-16.340426 7.313974-16.340426 16.340426v70.808511H163.404255v-163.404256h201.531915V559.931915c0 9.026451 7.316153 16.340426 16.340426 16.340425s16.340426-7.313974 16.340425-16.340425v-43.574468a16.340426 16.340426 0 0 0-16.340425-16.340426zM746.212766 500.017021H512c-9.024272 0-16.340426 7.313974-16.340426 16.340426s7.316153 16.340426 16.340426 16.340425h234.212766c9.026451 0 16.340426-7.313974 16.340425-16.340425s-7.313974-16.340426-16.340425-16.340426zM746.212766 401.974468h-599.148936c-9.024272 0-16.340426 7.313974-16.340426 16.340426s7.316153 16.340426 16.340426 16.340425h599.148936c9.026451 0 16.340426-7.313974 16.340425-16.340425s-7.313974-16.340426-16.340425-16.340426z" fill="#082947" p-id="4554"></path></svg>