<?xml version="1.0" standalone="no"?><!DOCTYPE svg PUBLIC "-//W3C//DTD SVG 1.1//EN" "http://www.w3.org/Graphics/SVG/1.1/DTD/svg11.dtd"><svg t="1760450828409" class="icon" viewBox="0 0 1024 1024" version="1.1" xmlns="http://www.w3.org/2000/svg" p-id="24490" xmlns:xlink="http://www.w3.org/1999/xlink" width="32" height="32"><path d="M475.4 886.7C249.1 886.7 64 701.5 64 475.2S249.1 63.8 475.4 63.8c226.3 0 411.4 185.1 411.4 411.4 0.1 226.3-185.1 411.5-411.4 411.5z" fill="#D6F3FA" p-id="24491"></path><path d="M180.2 299.8c4.3 0 8.7 1.2 12.6 3.9 9.8 6.6 13.1 19.7 7.1 29.9-3.4 5.7-6.7 11.6-9.8 17.5-3.9 7.4-11.6 11.6-19.6 11.6-3.2 0-6.5-0.7-9.6-2.1-11.9-5.4-16.7-19.8-10.6-31.3 3.3-6.2 6.7-12.3 10.3-18.3 4.3-7.3 11.8-11.2 19.6-11.2z m350.1-20.1l-8.4 0.3c-135.8 4.5-242.2 114.3-242.2 250.1s106.4 245.6 242.2 250.1l8.4 0.3 8.4-0.3c135.8-4.5 242.2-114.3 242.2-250.1S674.4 284.5 538.6 280l-8.3-0.3m0-179.3c13.8 0 27.7 0.6 41.6 1.9 198.2 18.4 360 175.2 384.7 372.7 32.7 261.4-171.2 484.8-426.3 484.8-14.1 0-28.4-0.7-42.7-2.1-206.8-20.1-384.8-215.3-386.9-423.1-0.5-46.4 6.3-91.9 20.3-135.5 3.2-9.9 12.2-16.2 21.8-16.2 2.7 0 5.4 0.5 8.1 1.5 11 4.2 17.2 16.3 13.6 27.6-11.3 35.1-17.3 71.7-18.2 109H256v18.2H146.4c0.1 4.5-0.1 9 0.2 13.5 10.4 183.9 154.2 337.3 337 359 12.6 1.5 25.1 2.2 37.5 2.5V803.9C373.9 799 256 678.5 256 530.1s117.9-269 265.1-273.8V145.9c-110.5 2.6-212.5 51.2-283.8 135.3-4.3 5.1-10.5 7.7-16.8 7.7-4.9 0-9.8-1.5-13.9-4.7-10.5-8-11.8-23.1-3.3-33.1 82-96.1 199.8-150.7 327-150.7z m9.1 813.8c204.7-4.8 370.2-170.3 375-375H804.6V521h109.8c-0.1-2.9 0-5.9-0.2-8.8-9-197-170.4-357.9-367.4-366.1-2.5-0.1-4.9 0-7.4-0.1v110.3c147.2 4.9 265.1 125.4 265.1 273.8s-117.9 269-265.1 273.8v110.3z m-66.7-536.7L592 616.1l33.4-91.2h77.5c13.8 0 24.9 11.2 24.9 24.9 0 13.8-11.2 24.9-24.9 24.9h-46.4l-44 120c-5.3 14.5-25.4 15.6-32.3 1.8l-117.1-234-34.3 112.2h-78.4c-13.8 0-24.9-11.2-24.9-24.9 0-13.8 11.2-24.9 24.9-24.9h45.5l44.3-144.6c4.6-15.3 25.4-17 32.5-2.8z" fill="#18BAE5" p-id="24492"></path></svg>