<?xml version="1.0" standalone="no"?><!DOCTYPE svg PUBLIC "-//W3C//DTD SVG 1.1//EN" "http://www.w3.org/Graphics/SVG/1.1/DTD/svg11.dtd"><svg t="1760419343502" class="icon" viewBox="0 0 1024 1024" version="1.1" xmlns="http://www.w3.org/2000/svg" p-id="18116" xmlns:xlink="http://www.w3.org/1999/xlink" width="32" height="32"><path d="M512 512m-512 0a512 512 0 1 0 1024 0 512 512 0 1 0-1024 0Z" fill="#7AA5DA" p-id="18117"></path><path d="M1023.848 500.154L796.566 273.25l-370.216 451.26 266.568 266.568C886.394 917.976 1024 731.07 1024 512c0-3.962-0.062-7.91-0.152-11.846z" fill="#5786B5" p-id="18118"></path><path d="M767.434 267.04c20.412-7.964 41.512 9.896 37.03 31.34l-91.54 437.562c-4.276 20.514-28.376 29.754-45.27 17.342l-138.188-101.434-70.438 71.922c-12.378 12.62-33.72 7.482-39.03-9.344l-50.82-161.324-136.224-40.236c-17.894-5.276-18.928-30.168-1.586-36.96L767.434 267.04z m-67.198 97.09c5.964-5.276-0.966-14.584-7.724-10.378l-294.03 182.354a13.362 13.362 0 0 0-5.724 15.342l40.098 176.08c0.794 2.69 4.654 2.31 5-0.482l8.964-134.188a13.268 13.268 0 0 1 4.414-8.55l249.002-220.178z" fill="#FFFFFF" p-id="18119"></path><path d="M692.514 353.752c6.758-4.206 13.688 5.102 7.724 10.378l-249 220.178a13.286 13.286 0 0 0-4.414 8.55l-8.964 134.188c-0.344 2.792-4.206 3.172-5 0.482l-40.098-176.08a13.36 13.36 0 0 1 5.724-15.342l294.028-182.354z" fill="#9EC2E5" p-id="18120"></path><path d="M434.308 729.356c-6.482-2.31-11.964-7.482-14.308-14.93l-50.82-161.324-136.224-40.236c-17.894-5.276-18.928-30.168-1.586-36.96L767.434 267.04c13.17-5.138 26.652 0.482 33.306 10.896a28.836 28.836 0 0 0-4.378-5.206L432.686 569.62v12.998l-2-1.448 2 81.852v65.646c0.518 0.242 1.068 0.448 1.62 0.62v0.068h0.002z" fill="#FFFFFF" p-id="18121"></path><path d="M805.05 291.036a29.944 29.944 0 0 1-0.586 7.344l-91.54 437.562c-4.276 20.514-28.376 29.754-45.27 17.342l-138.188-101.434-96.78-69.232v-12.998l363.676-296.892a28.754 28.754 0 0 1 4.378 5.206c0.242 0.414 0.482 0.792 0.724 1.172 0.206 0.414 0.448 0.828 0.656 1.206 0.206 0.414 0.414 0.828 0.586 1.242 0.206 0.448 0.38 0.862 0.552 1.31 0.138 0.38 0.31 0.792 0.448 1.242 0.448 1.344 0.792 2.724 1.034 4.172 0.138 0.896 0.242 1.794 0.31 2.758z" fill="#D1D1D1" p-id="18122"></path><path d="M529.466 651.85l-70.438 71.922c-0.586 0.586-1.206 1.172-1.828 1.69-0.62 0.518-1.242 0.966-1.896 1.414l-0.034 0.034c-1.31 0.862-2.654 1.586-4.068 2.172-0.724 0.276-1.414 0.552-2.138 0.724-3 0.896-6.068 1.138-9.102 0.828a25.228 25.228 0 0 1-2.344-0.344c-0.104 0-0.206-0.034-0.31-0.068a54.07 54.07 0 0 1-2.276-0.656 3.07 3.07 0 0 1-0.724-0.276l-1.62-66.266V582.62l96.778 69.23z" fill="#D1D1D1" p-id="18123"></path><path d="M457.2 725.46c-0.62 0.518-1.242 1-1.896 1.448v-0.034c0.656-0.448 1.276-0.896 1.896-1.414zM455.304 726.874v0.034s0-0.034-0.034 0l0.034-0.034zM451.202 729.082a24.292 24.292 0 0 0 4.068-2.172c-1.31 0.86-2.69 1.584-4.068 2.172zM439.962 730.632c3.034 0.31 6.102 0.068 9.102-0.828a21.924 21.924 0 0 1-8.688 0.896 0.84 0.84 0 0 1-0.414-0.068z" fill="#DADDE0" p-id="18124"></path><path d="M442.41 730.804zM439.962 730.632a0.886 0.886 0 0 0 0.414 0.068 13.472 13.472 0 0 1-2.068-0.276c0.55 0.106 1.102 0.174 1.654 0.208z" fill="#FFFFFF" p-id="18125"></path><path d="M439.962 730.632a13.686 13.686 0 0 1-1.654-0.206 3.938 3.938 0 0 1-0.69-0.138c0.758 0.138 1.55 0.276 2.344 0.344zM435.032 729.564c0.758 0.242 1.518 0.448 2.276 0.656l-0.93-0.206c-0.138-0.034-0.276-0.068-0.38-0.138a5.27 5.27 0 0 1-0.966-0.312z" fill="#DADDE0" p-id="18126"></path><path d="M436.376 730.012l0.93 0.206a4.438 4.438 0 0 1-0.93-0.206zM435.032 729.564c0.31 0.138 0.656 0.242 0.966 0.31a9.054 9.054 0 0 1-1.552-0.482c0.206 0.068 0.378 0.138 0.586 0.172z" fill="#FFFFFF" p-id="18127"></path><path d="M435.032 729.564c-0.206-0.034-0.38-0.104-0.586-0.172-0.034 0.034-0.104 0-0.138-0.034v-0.068c0.24 0.136 0.482 0.204 0.724 0.274z" fill="#DADDE0" p-id="18128"></path><path d="M432.686 663.022l1.62 66.266a13.146 13.146 0 0 1-1.62-0.62v-65.646z" fill="#D1D1D1" p-id="18129"></path><path d="M432.686 582.618v80.404l-2-81.852z" fill="#DADDE0" p-id="18130"></path><path d="M700.236 364.13l-249 220.178a13.286 13.286 0 0 0-4.414 8.55l-8.948 134.2c-0.344 2.792-4.206 3.172-5.034 0.482l-40.08-176.09a13.36 13.36 0 0 1 5.724-15.342l294.03-182.354c6.758-4.208 13.688 5.102 7.722 10.376z" fill="#ADBCC9" p-id="18131"></path></svg>