<?xml version="1.0" standalone="no"?><!DOCTYPE svg PUBLIC "-//W3C//DTD SVG 1.1//EN" "http://www.w3.org/Graphics/SVG/1.1/DTD/svg11.dtd"><svg t="1760505735730" class="icon" viewBox="0 0 1024 1024" version="1.1" xmlns="http://www.w3.org/2000/svg" p-id="6534" xmlns:xlink="http://www.w3.org/1999/xlink" width="32" height="32"><path d="M512 512m-448 0a448 448 0 1 0 896 0 448 448 0 1 0-896 0Z" fill="#8CD2FB" p-id="6535"></path><path d="M372 468m-160 0a160 160 0 1 0 320 0 160 160 0 1 0-320 0Z" fill="#FFC819" p-id="6536"></path><path d="M390 716c-49.706 0-90-40.294-90-90s40.294-90 90-90h0.083c-0.055-1.66-0.083-3.327-0.083-5 0-81.186 65.814-147 147-147 55.924 0 104.555 31.229 129.403 77.2 5.753-0.791 11.627-1.2 17.597-1.2 70.692 0 128 57.308 128 128 0 70.692-57.308 128-128 128H390z" fill="#FFFFFF" p-id="6537"></path></svg>