<svg xmlns="http://www.w3.org/2000/svg" xmlns:xlink="http://www.w3.org/1999/xlink" viewBox="0 0 1024 1024" width="66" height="66"><path d="m894.4 461.56-54.4-63.2c-10.4-12-18.8-34.4-18.8-50.4v-68c0-42.4-34.8-77.2-77.2-77.2h-68c-15.6 0-38.4-8.4-50.4-18.8l-63.2-54.4c-27.6-23.6-72.8-23.6-100.8 0l-62.8 54.8c-12 10-34.8 18.4-50.4 18.4h-69.2c-42.4 0-77.2 34.8-77.2 77.2v68.4c0 15.6-8.4 38-18.4 50l-54 63.6c-23.2 27.6-23.2 72.4 0 100l54 63.6c10 12 18.4 34.4 18.4 50v68.4c0 42.4 34.8 77.2 77.2 77.2h69.2c15.6 0 38.4 8.4 50.4 18.8l63.2 54.4c27.6 23.6 72.8 23.6 100.8 0l63.2-54.4c12-10.4 34.4-18.8 50.4-18.8h68c42.4 0 77.2-34.8 77.2-77.2v-68c0-15.6 8.4-38.4 18.8-50.4l54.4-63.2c23.2-27.6 23.2-73.2-.4-100.8zm-216-25.2-193.2 193.2a30 30 0 0 1-42.4 0l-96.8-96.8a30.16 30.16 0 0 1 0-42.4c11.6-11.6 30.8-11.6 42.4 0l75.6 75.6 172-172c11.6-11.6 30.8-11.6 42.4 0 11.6 11.6 11.6 30.8 0 42.4z" fill="#27ae60"></path></svg>